<!DOCTYPE svg PUBLIC "-//W3C//DTD SVG 1.1//EN" "http://www.w3.org/Graphics/SVG/1.1/DTD/svg11.dtd">
<!-- Uploaded to: SVG Repo, www.svgrepo.com, Transformed by: SVG Repo Mixer Tools -->
<svg height="800px" width="800px" version="1.1" id="Layer_1" xmlns="http://www.w3.org/2000/svg" xmlns:xlink="http://www.w3.org/1999/xlink" viewBox="0 0 473.935 473.935" xml:space="preserve" fill="#000000">
<g id="SVGRepo_bgCarrier" stroke-width="0"/>
<g id="SVGRepo_tracerCarrier" stroke-linecap="round" stroke-linejoin="round"/>
<g id="SVGRepo_iconCarrier"> <circle style="fill:#1fa2ff;" cx="236.967" cy="236.967" r="236.967"/> <path style="fill:#E4E1D3;" d="M370.082,181.166H103.816c-2.975,0-5.392,2.417-5.392,5.392v180.93c0,2.975,2.417,5.392,5.392,5.392 h266.266c2.982,0,5.399-2.417,5.399-5.392V186.562C375.481,183.587,373.064,181.166,370.082,181.166z"/> <path style="fill:#CB774C;" d="M393.98,189.914c-0.161-1.616-1.066-3.027-2.354-3.906l-67.79-57.399v-39.76 c0-2.982-2.417-5.392-5.399-5.392h-25.594c-2.982,0-5.399,2.413-5.399,5.392v8.954l-50.896-43.098 c-2.062-1.74-5.07-1.703-7.083,0.094L82.046,186.18c-0.206,0.168-0.4,0.344-0.584,0.535c-1.22,1.212-1.755,2.93-1.497,4.602v12.767 c0,2.978,2.417,5.399,5.392,5.399h303.253c2.982,0,5.399-2.421,5.399-5.399V190.91C394.025,190.58,394.025,190.244,393.98,189.914z"/> <path style="fill:#A07238;" d="M157.713,348.196c-3.495,3.495-9.156,3.495-12.651,0l0,0c-3.502-3.502-3.502-9.16,0-12.655 l65.489-65.493c3.487-3.487,9.149-3.487,12.651,0.007l0,0c3.495,3.487,3.495,9.149-0.007,12.651L157.713,348.196z"/> <path style="fill:#D4A160;" d="M166.461,350.602c-3.061,3.046-10.866,0.206-17.437-6.365l0,0 c-6.578-6.578-9.422-14.383-6.365-17.437l69.552-69.56c3.061-3.053,10.866-0.206,17.437,6.365l0,0 c6.578,6.563,9.429,14.376,6.365,17.444L166.461,350.602z"/> <circle style="fill:#60C3B6;" cx="265.517" cy="227.729" r="64.321"/> <circle style="fill:#83CECA;" cx="269.334" cy="233.937" r="50.533"/> <path style="fill:#A07238;" d="M208.986,260.148l-9.141,9.141c0,0,8.352,18.454,26.316,21.287l6.642-6.634v-8.58L208.986,260.148z"/> <path style="fill:#EBEDEF;" d="M215.662,177.866c-27.536,27.536-27.536,72.19,0,99.722c27.543,27.547,72.19,27.547,99.734,0.011 c27.536-27.543,27.536-72.198,0-99.734C287.852,150.323,243.205,150.323,215.662,177.866z M302.827,265.023 c-20.595,20.595-53.994,20.599-74.596,0c-20.595-20.599-20.595-53.998,0-74.593c20.602-20.599,54.001-20.599,74.596,0 C323.425,211.029,323.418,244.429,302.827,265.023z"/> <path style="opacity:0.7;fill:#FFFFFF;enable-background:new ;" d="M230.629,220.829c-1.325,2.881-0.067,6.309,2.806,7.63 c2.892,1.34,6.316,0.067,7.644-2.799c0,0,0.052-0.138,0.329-0.64c1.994-3.656,11.615-19.158,31.936-21.048 c2.47-0.236,4.415-1.991,5.014-4.258c0.168-0.636,0.228-1.317,0.161-2.024c-0.314-3.158-3.113-5.482-6.279-5.167 C242.27,195.609,230.921,220.249,230.629,220.829z"/> </g>
</svg>